<svg xmlns="http://www.w3.org/2000/svg" xmlns:xlink="http://www.w3.org/1999/xlink" width="800" zoomAndPan="magnify" viewBox="0 0 600 449.999984" height="600" preserveAspectRatio="xMidYMid meet" version="1.0"><path fill="#3b3c98" d="M 179.082031 281.625 C 164.4375 281.625 151.722656 289.675781 144.816406 301.503906 C 141.394531 307.367188 139.285156 314.128906 139.285156 321.382812 C 139.285156 343.292969 157.132812 361.144531 179.082031 361.144531 C 201.027344 361.144531 218.875 343.292969 218.875 321.382812 C 218.875 314.128906 216.785156 307.367188 213.34375 301.503906 C 206.441406 289.675781 193.746094 281.625 179.082031 281.625 Z M 179.082031 281.625 " fill-opacity="1" fill-rule="nonzero"/><path fill="#3b3c98" d="M 457.648438 281.625 C 443.003906 281.625 430.289062 289.675781 423.386719 301.503906 C 419.964844 307.367188 417.855469 314.128906 417.855469 321.382812 C 417.855469 343.292969 435.703125 361.144531 457.648438 361.144531 C 479.597656 361.144531 497.445312 343.292969 497.445312 321.382812 C 497.445312 314.128906 495.355469 307.367188 491.914062 301.503906 C 485.007812 289.675781 472.316406 281.625 457.648438 281.625 Z M 457.648438 281.625 " fill-opacity="1" fill-rule="nonzero"/><path fill="#3b3c98" d="M 577.035156 241.867188 L 577.035156 221.988281 L 457.648438 187.894531 L 318.363281 102.710938 L 99.488281 102.710938 L 99.488281 122.589844 L 218.875 122.589844 L 218.875 142.46875 L 0 142.46875 L 0 162.347656 L 238.773438 162.347656 L 238.773438 182.226562 L 39.796875 182.226562 L 39.796875 202.105469 L 139.285156 202.105469 L 139.285156 221.988281 L 99.488281 221.988281 L 99.488281 241.867188 L 19.898438 241.867188 L 19.898438 261.746094 L 119.386719 261.746094 L 119.386719 281.625 L 99.488281 281.625 L 99.488281 301.503906 L 39.796875 301.503906 L 39.796875 321.382812 L 119.386719 321.382812 C 119.386719 314.386719 120.820312 307.746094 123.046875 301.503906 C 131.285156 278.40625 153.132812 261.746094 179.082031 261.746094 C 205.046875 261.746094 226.875 278.40625 235.113281 301.503906 C 237.320312 307.746094 238.773438 314.386719 238.773438 321.382812 L 397.957031 321.382812 C 397.957031 314.386719 399.390625 307.746094 401.617188 301.503906 C 409.855469 278.40625 431.703125 261.746094 457.648438 261.746094 C 483.617188 261.746094 505.445312 278.40625 513.683594 301.503906 C 515.890625 307.746094 517.34375 314.386719 517.34375 321.382812 L 577.035156 321.382812 L 577.035156 301.503906 L 596.933594 301.503906 L 596.933594 241.867188 Z M 577.035156 241.867188 " fill-opacity="1" fill-rule="nonzero"/></svg>